<?xml version="1.0" encoding="UTF-8"?><svg id="Lag_1" xmlns="http://www.w3.org/2000/svg" viewBox="0 0 1200.73266 263.96586"><defs><style>.cls-1{fill:#fff;}</style></defs><path class="cls-1" d="M114.27264,260.74871L25.10866,35.40992v225.33878H0V3.22247H40.23564l90.7832,229.52001V3.22247h25.10866V260.74871h-41.85487Z"/><path class="cls-1" d="M254.82112,260.74871v-25.10866h0V28.33113h0V3.22247h27.36706V28.33113h0V235.64005h0v25.10866h-27.36706Z"/><path class="cls-1" d="M466.58503,260.74871h-26.07807L355.1993,3.22247h30.26462l68.56145,216.6461L522.26724,3.22247h29.94503l-85.62725,257.52623Z"/><path class="cls-1" d="M615.38856,260.74871V3.22247h163.53121V28.33113h-136.16415V107.51876h120.06777v25.10866h-120.06777v103.01262h136.16415v25.10866h-163.53121Z"/><path class="cls-1" d="M858.86053,260.74871V3.22247h27.3564V235.64005h112.67472v25.10866h-140.03112Z"/><path class="cls-1" d="M1115.10541,263.96586c-27.8997,0-49.08813-7.9896-63.57594-23.97946-14.48781-15.98453-21.73172-39.43668-21.73172-70.34047V95.60893c0-31.3299,7.29717-55.09631,21.89151-71.30455,14.59434-16.19759,35.83604-24.30437,63.73573-24.30437,27.68664,0,48.82181,8.10678,63.41615,24.30437,14.59434,16.20824,21.89151,39.97465,21.89151,71.30455v74.03699c0,30.90379-7.29717,54.35594-21.89151,70.34047-14.59434,15.98986-35.83604,23.97946-63.73573,23.97946Zm0-25.10866c21.02864,0,35.99583-5.19857,44.91223-15.61169,8.89509-10.40779,13.35862-27.84643,13.35862-52.3106V94.31994c0-25.10866-4.46353-42.92015-13.35862-53.43447-8.9164-10.51432-23.88359-15.7768-44.91223-15.7768s-35.94256,5.26249-44.74178,15.7768c-8.79922,10.51432-13.19883,28.32581-13.19883,53.43447v76.61497c0,24.46417,4.39961,41.90281,13.19883,52.3106,8.79922,10.41312,23.71314,15.61169,44.74178,15.61169Z"/></svg>