<?xml version="1.0" encoding="UTF-8"?><svg id="Lag_1" xmlns="http://www.w3.org/2000/svg" viewBox="0 0 2042.9345 417.97226"><defs><style>.cls-1{fill:#fff;}</style></defs><path class="cls-1" d="M180.94307,412.87812L39.75788,56.06924V412.87812H0V5.10257H63.71045L207.45957,368.53214V5.10257h39.75788V412.87812h-66.27439Z"/><path class="cls-1" d="M356.79201,412.87812v-39.75788h101.95021V44.86046h-101.95021V5.10257h247.21746V44.86046h-101.93334V373.12024h101.93334v39.75788h-247.21746Z"/><path class="cls-1" d="M857.85605,412.87812h-41.29287L681.48421,5.10257h47.922l108.56247,343.04459L946.0251,5.10257h47.41596l-135.58501,407.77555Z"/><path class="cls-1" d="M1070.39289,412.87812V5.10257h258.94072V44.86046h-215.60682v125.3883h190.11927v39.75788h-190.11927v163.11359h215.60682v39.75788h-258.94072Z"/><path class="cls-1" d="M1452.68932,412.87812V5.10257h43.31703V373.12024h178.41287v39.75788h-221.7299Z"/><path class="cls-1" d="M1907.34948,417.97226c-44.1773,0-77.72776-12.651-100.66824-37.96988-22.94048-25.31044-34.41073-62.44535-34.41073-111.37943v-117.23262c0-49.6088,11.55458-87.24131,34.66375-112.90598,23.10916-25.6478,56.74396-38.48435,100.92126-38.48435,43.83994,0,77.30606,12.83655,100.41522,38.48435,23.10916,25.66467,34.66375,63.29718,34.66375,112.90598v117.23262c0,48.93408-11.55458,86.06899-34.66375,111.37943-23.10916,25.31887-56.74396,37.96988-100.92126,37.96988Zm0-39.75788c33.29744,0,56.99698-8.23159,71.1155-24.72006,14.08478-16.48004,21.15248-44.09296,21.15248-82.83033v-121.31468c0-39.75788-7.06769-67.96119-21.15248-84.60991-14.11852-16.64872-37.81806-24.98151-71.1155-24.98151s-56.91264,8.33279-70.84561,24.98151c-13.93297,16.64872-20.89946,44.85202-20.89946,84.60991v121.31468c0,38.73737,6.96649,66.35029,20.89946,82.83033,13.93297,16.48847,37.54818,24.72006,70.84561,24.72006Z"/></svg>